<svg width="80" height="53" viewBox="0 0 80 53" fill="none" xmlns="http://www.w3.org/2000/svg">
<g id="Frame" clip-path="url(#clip0_1_1203)">
<g id="Group">
<g id="Group_2">
<path id="Vector" d="M32.1209 53L65.1706 42.8224L57.9067 36.6776L30.9519 46.4167L32.1209 53Z" fill="#4E8F3D"/>
<path id="Vector_2" d="M62.7414 36.8289V42.5908L32.593 51.4375V46.1882L62.7414 36.8289Z" fill="#ECEFF2"/>
<path id="Vector_3" opacity="0.38" d="M32.593 47.2443V46.1882L62.7414 36.9802V39.8859L32.593 47.2443Z" fill="#D3DBE0"/>
<path id="Vector_4" d="M8.50281 15.7666L28.961 43.4091L32.5929 46.1882L63.6455 36.7054L39.5706 6.99091L8.50281 15.7666Z" fill="#27A857"/>
<path id="Vector_5" d="M32.121 53L32.5929 46.1882L29.923 42.9922L24.8663 45.1939L32.121 53Z" fill="#4E8F3D"/>
<path id="Vector_6" d="M29.9231 48.5782L30.1423 46.6081L27.5911 44.0051L26.1937 44.6165L29.9231 48.5782Z" fill="#27A857"/>
<g id="Group_3">
<g id="Group_4">
<path id="Vector_7" d="M62.7415 39.1756C62.7658 39.2621 56.3604 41.3186 48.4329 43.7703C40.5023 46.2252 34.0574 48.1427 34.03 48.0594C34.0056 47.976 40.411 45.9164 48.3385 43.4646C56.2691 41.0098 62.7171 39.0891 62.7415 39.1756Z" fill="#A0927F"/>
</g>
</g>
<g id="Group_5">
<g id="Group_6">
<path id="Vector_8" d="M62.7414 41.053C62.7445 41.0623 62.6471 41.0993 62.4583 41.1549C62.2696 41.2136 61.9925 41.2908 61.6302 41.3896C60.9118 41.5872 59.8675 41.862 58.5737 42.1955C55.9768 42.8594 52.4149 43.7673 48.4755 44.7739C44.533 45.7867 40.9742 46.7378 38.4047 47.4511C37.1291 47.8062 36.094 48.0933 35.3603 48.2971C35.0011 48.396 34.721 48.4701 34.5292 48.5195C34.3374 48.5658 34.237 48.5874 34.2339 48.575C34.2309 48.5627 34.3253 48.5226 34.511 48.4577C34.6967 48.3898 34.9707 48.2971 35.3238 48.1798C36.0332 47.942 37.0622 47.6178 38.3408 47.2349C40.8981 46.466 44.4508 45.4779 48.3963 44.462C52.3388 43.4492 55.922 42.5846 58.5189 41.9732C59.8158 41.6675 60.8691 41.4267 61.5968 41.2661C61.9621 41.1858 62.2452 41.1271 62.437 41.0901C62.6379 41.0592 62.7414 41.0438 62.7414 41.053Z" fill="#A0927F"/>
</g>
</g>
</g>
<g id="Group_7">
<path id="Vector_9" d="M0 21.615L14.5856 50.0511L40.5693 38.7217L41.5952 41.0345L55.3862 36.9894L53.5627 34.2134L80 35.1398L56.8658 8.43909L0 21.615Z" fill="#EB763C"/>
<path id="Vector_10" d="M51.9097 35.5999L50.2566 33.0555C50.2566 33.0555 68.261 29.1247 79.4308 31.3202C79.4308 31.3202 75.8994 24.3848 71.1106 23.5758C66.3248 22.7699 4.32921 14.6797 4.32921 14.6797L1.70801 15.7203L16.6376 42.5383C16.6376 42.5383 35.7837 34.2166 44.2166 34.3308L43.6473 37.7985L51.9097 35.5999Z" fill="#ACB8BF"/>
<path id="Vector_11" d="M77.2661 26.009C77.2661 26.009 58.9177 24.6226 46.6093 33.7534L55.8398 4.73987H59.9436L77.2661 26.009Z" fill="#E3E8EC"/>
<path id="Vector_12" d="M2.5086 12.5984C2.04281 12.8084 18.4641 36.9864 18.4641 36.9864C18.4641 36.9864 37.1535 30.051 46.6124 33.7503L35.3117 12.5984C35.3087 12.5984 14.132 7.39849 2.5086 12.5984Z" fill="#D3DBE0"/>
<path id="Vector_13" d="M5.12677 9.70821L19.828 32.1322C19.828 32.1322 40.5694 26.0059 46.6094 34.2135L33.96 10.7488C33.96 10.7488 21.198 3.23606 5.12677 9.70821Z" fill="#E3E8EC"/>
<path id="Vector_14" d="M6.4968 3.81349L21.539 26.5864L23.9319 26.009C23.9319 26.009 36.697 18.4963 46.1528 33.0586L33.9601 10.0571C33.9601 10.0571 26.2121 -3.0045 6.4968 3.81349Z" fill="#ECEFF2"/>
<path id="Vector_15" d="M54.3604 -5.88146e-06C54.3604 -5.88146e-06 37.9513 -0.114256 33.9601 10.0571L46.6094 33.7534C46.6094 33.7534 55.84 16.5293 69.8563 20.5775L54.3604 -5.88146e-06Z" fill="#ECEFF2"/>
<path id="Vector_16" d="M1.70789 21.2198L15.5933 48.0903L40.5693 36.9894L42.1706 39.7037L54.5521 35.7234L55.3863 36.9894L41.5953 41.0345L40.5693 38.7217L14.5856 50.0511L0 21.615L1.70789 21.2198Z" fill="#B26539"/>
<path id="Vector_17" d="M54.1442 35.0997L80 36.4305V35.1398L53.5627 34.2134L54.1442 35.0997Z" fill="#B26539"/>
<g id="Group_8">
<path id="Vector_18" d="M38.4048 14.4234C38.3804 14.4203 38.4139 14.1362 38.5478 13.6391C38.7001 13.1481 38.9984 12.4533 39.5464 11.7091C40.0883 10.965 40.8768 10.193 41.854 9.4828C42.8282 8.7695 43.9821 8.12105 45.2424 7.55597C46.4998 6.98781 47.7388 6.54933 48.8804 6.20349C50.019 5.85765 51.0602 5.59827 51.94 5.413C52.8199 5.22464 53.5383 5.1073 54.0346 5.04246C54.5339 4.97761 54.8109 4.96526 54.817 4.99305C54.8261 5.05172 53.7393 5.26478 52.007 5.70943C50.2809 6.16644 47.8971 6.8365 45.4129 7.95122C42.9287 9.04432 40.8798 10.4956 39.7808 11.8944C39.2267 12.5861 38.898 13.2345 38.7031 13.6946C38.5265 14.164 38.4383 14.4326 38.4048 14.4234Z" fill="#B8AC98"/>
</g>
<g id="Group_9">
<path id="Vector_19" d="M39.7504 16.4953C39.7261 16.4922 39.7595 16.2082 39.8935 15.711C40.0457 15.22 40.3441 14.5253 40.892 13.7811C41.4339 13.0369 42.2224 12.265 43.1997 11.5548C44.1739 10.8415 45.3277 10.193 46.5881 9.62793C47.8454 9.05977 49.0844 8.62129 50.2261 8.27545C51.3647 7.92961 52.4059 7.67023 53.2857 7.48496C54.1655 7.2966 54.884 7.17926 55.3802 7.11442C55.8795 7.04957 56.1565 7.03722 56.1626 7.06501C56.1717 7.12368 55.0849 7.33674 53.3527 7.78139C51.6265 8.2384 49.2428 8.90537 46.7585 10.0232C44.2743 11.1163 42.2255 12.5676 41.1265 13.9664C40.5724 14.6581 40.2436 15.3065 40.0488 15.7666C39.8722 16.236 39.7839 16.5046 39.7504 16.4953Z" fill="#B8AC98"/>
</g>
<g id="Group_10">
<path id="Vector_20" d="M41.3425 19.1354C41.3182 19.1323 41.3517 18.8483 41.4856 18.3511C41.6378 17.8601 41.9362 17.1654 42.4842 16.4212C43.0261 15.677 43.8146 14.9051 44.7918 14.1949C45.766 13.4816 46.9198 12.8331 48.1802 12.268C49.4375 11.6999 50.6766 11.2614 51.8182 10.9156C52.9568 10.5697 53.998 10.3103 54.8778 10.1251C55.7576 9.93979 56.4761 9.81937 56.9723 9.75452C57.4716 9.68968 57.7487 9.67733 57.7547 9.70512C57.7639 9.76379 56.677 9.97685 54.9448 10.4215C53.2186 10.8785 50.8349 11.5486 48.3507 12.6633C45.8665 13.7564 43.8176 15.2077 42.7186 16.6065C42.1645 17.2982 41.8357 17.9466 41.6409 18.4067C41.4643 18.873 41.376 19.1447 41.3425 19.1354Z" fill="#B8AC98"/>
</g>
<g id="Group_11">
<path id="Vector_21" d="M43.2331 21.5903C43.2088 21.5872 43.2423 21.3031 43.3762 20.806C43.5284 20.315 43.8268 19.6202 44.3748 18.8761C44.9167 18.1319 45.7052 17.3599 46.6824 16.6497C47.6566 15.9364 48.8104 15.288 50.0708 14.7229C51.3281 14.1547 52.5672 13.7163 53.7088 13.3704C54.8474 13.0246 55.8886 12.7652 56.7684 12.5799C57.6482 12.3916 58.3667 12.2742 58.8629 12.2094C59.3622 12.1445 59.6392 12.1322 59.6453 12.16C59.6545 12.2187 58.5676 12.4317 56.8354 12.8764C55.1092 13.3334 52.7255 14.0003 50.2413 15.1181C47.7571 16.2113 45.7082 17.6625 44.6092 19.0613C44.0551 19.753 43.7263 20.4015 43.5315 20.8616C43.3519 21.3309 43.2666 21.5996 43.2331 21.5903Z" fill="#B8AC98"/>
</g>
<g id="Group_12">
<path id="Vector_22" d="M45.355 24.4157C45.3306 24.4126 45.3641 24.1285 45.4981 23.6314C45.6503 23.1404 45.9486 22.4457 46.4966 21.7015C47.0385 20.9573 47.827 20.1853 48.8043 19.4751C49.7785 18.7618 50.9323 18.1134 52.1927 17.5483C53.45 16.9801 54.689 16.5417 55.8307 16.1958C56.9693 15.85 58.0104 15.5906 58.8903 15.4053C59.7701 15.2201 60.4886 15.0996 60.9848 15.0348C61.4841 14.97 61.7611 14.9576 61.7672 14.9854C61.7763 15.0441 60.6895 15.2571 58.9572 15.7018C57.2311 16.1588 54.8473 16.8288 52.3631 17.9436C49.8789 19.0367 47.8301 20.488 46.731 21.8867C46.177 22.5784 45.8482 23.2269 45.6533 23.687C45.4768 24.1532 45.3885 24.4219 45.355 24.4157Z" fill="#B8AC98"/>
</g>
<g id="Group_13">
<path id="Vector_23" d="M35.403 15.01C35.3604 15.078 34.5019 14.5006 32.9919 13.8274C32.8031 13.7471 32.6052 13.6607 32.3982 13.5711C32.1912 13.4846 31.9689 13.4136 31.7406 13.3272C31.29 13.1481 30.7908 13.0122 30.2702 12.8578C29.2199 12.5799 28.0447 12.3514 26.7966 12.2402C25.5453 12.1414 24.3489 12.1723 23.2681 12.268C22.7293 12.336 22.2148 12.3854 21.7399 12.4873C21.5024 12.5336 21.271 12.5645 21.0518 12.617C20.8326 12.6695 20.6256 12.7219 20.4247 12.7714C18.8264 13.182 17.8857 13.6082 17.8552 13.5341C17.8431 13.5063 18.0683 13.3827 18.4915 13.1789C18.5981 13.1295 18.7168 13.074 18.8447 13.0122C18.9756 12.9566 19.1217 12.9041 19.277 12.8455C19.5905 12.7312 19.9406 12.583 20.3455 12.478C20.5465 12.4193 20.7596 12.3576 20.9788 12.2958C21.198 12.2341 21.4354 12.1939 21.6759 12.1383C22.1569 12.021 22.6806 11.9562 23.2286 11.8759C24.3306 11.7554 25.5545 11.7122 26.8331 11.8141C28.1087 11.9284 29.3112 12.1754 30.3767 12.4811C30.9065 12.6509 31.4118 12.8022 31.8654 12.9999C32.0938 13.0956 32.319 13.1728 32.5261 13.2716C32.7331 13.3704 32.931 13.4661 33.1197 13.5588C33.5033 13.7317 33.826 13.9355 34.1152 14.1022C34.2583 14.1887 34.3953 14.2628 34.514 14.34C34.6297 14.4203 34.7363 14.4944 34.8337 14.5623C35.2142 14.8248 35.4182 14.9853 35.403 15.01Z" fill="#B8AC98"/>
</g>
<g id="Group_14">
<path id="Vector_24" d="M36.1459 16.8226C36.1215 16.8844 35.2112 16.5108 33.7256 15.9766C32.243 15.4485 30.1606 14.7661 27.7891 14.4944C25.4175 14.2227 23.2408 14.5191 21.7551 14.9915C20.2573 15.4547 19.4262 15.9951 19.3866 15.9272C19.3714 15.9055 19.5662 15.7481 19.9468 15.5103C20.3273 15.2725 20.9057 14.9761 21.6607 14.7013C23.1616 14.1393 25.4023 13.7842 27.8378 14.0621C30.2702 14.34 32.3678 15.0842 33.8352 15.6894C35.3026 16.3039 36.1672 16.7732 36.1459 16.8226Z" fill="#B8AC98"/>
</g>
<g id="Group_15">
<path id="Vector_25" d="M37.4824 19.3053C37.4429 19.3671 36.6361 18.839 35.2144 18.2462C33.8018 17.6533 31.7377 17.0512 29.4027 16.9956C27.0676 16.9369 24.9762 17.4341 23.5362 17.959C22.0901 18.4808 21.2559 18.9687 21.2224 18.9039C21.2072 18.8792 21.4021 18.731 21.7735 18.5025C22.1449 18.274 22.7081 17.9744 23.4296 17.6749C24.8666 17.0666 27.0098 16.5046 29.4118 16.5664C31.8138 16.625 33.9266 17.292 35.3331 17.9683C36.0394 18.3048 36.5874 18.6291 36.9466 18.8792C37.315 19.1231 37.4977 19.2806 37.4824 19.3053Z" fill="#B8AC98"/>
</g>
<g id="Group_16">
<path id="Vector_26" d="M33.2294 12.2063C33.1898 12.2681 32.3526 11.7092 30.9187 10.9804C30.2002 10.6222 29.3295 10.2239 28.3249 9.90278C27.3233 9.57855 26.1847 9.33152 24.9761 9.28829C22.5467 9.19566 20.37 9.78853 18.8234 10.2023C17.2708 10.6346 16.3118 10.9218 16.2905 10.86C16.2753 10.8075 17.1977 10.4215 18.7382 9.90895C19.5084 9.65884 20.44 9.38402 21.4964 9.16478C22.5528 8.95481 23.7401 8.8035 24.9944 8.85599C26.2486 8.90231 27.4268 9.16787 28.4497 9.52297C29.4757 9.87499 30.3494 10.3104 31.0618 10.7087C31.7742 11.1101 32.3191 11.4776 32.6875 11.7462C33.0559 12.0149 33.2476 12.1816 33.2294 12.2063Z" fill="#B8AC98"/>
</g>
<g id="Group_17">
<path id="Vector_27" d="M31.2779 9.14933C31.2414 9.21417 30.3981 8.71394 28.9551 8.09328C28.7724 8.01608 28.5837 7.93889 28.3858 7.85552C28.1879 7.77523 27.9748 7.70421 27.7617 7.62393C27.3324 7.45718 26.8605 7.31823 26.3674 7.16383C25.3718 6.88284 24.2637 6.62964 23.0825 6.46289C21.9013 6.3085 20.7657 6.25292 19.7306 6.25909C19.2131 6.27762 18.7229 6.28071 18.2663 6.33011C18.038 6.35173 17.8157 6.36099 17.6026 6.38569C17.3925 6.41348 17.1886 6.43819 16.9937 6.46289C15.4411 6.67287 14.4974 6.92916 14.4791 6.85814C14.47 6.83035 14.6983 6.7408 15.1214 6.60493C15.3315 6.53391 15.5933 6.45671 15.9008 6.38569C16.2083 6.31467 16.5553 6.21895 16.9481 6.16028C17.1429 6.12631 17.3499 6.09235 17.563 6.05529C17.7761 6.02133 18.0014 6.0028 18.2358 5.97501C18.6986 5.91325 19.1979 5.89164 19.7245 5.86385C20.7748 5.83605 21.9348 5.87928 23.1403 6.03677C24.3428 6.2066 25.4723 6.47524 26.48 6.78403C26.9793 6.95386 27.4572 7.10517 27.8865 7.29044C28.1026 7.37998 28.3158 7.45718 28.5136 7.54982C28.7115 7.64245 28.9003 7.732 29.0799 7.81537C29.4422 7.97903 29.7557 8.16121 30.0328 8.31252C30.3129 8.46074 30.5412 8.60587 30.7269 8.73247C31.0953 8.97641 31.2931 9.12463 31.2779 9.14933Z" fill="#B8AC98"/>
</g>
<g id="Group_18">
<path id="Vector_28" d="M53.1853 3.36267C53.1913 3.43678 52.1623 3.54485 50.5397 3.90922C50.3357 3.95554 50.1257 4.00494 49.9034 4.05744C49.6842 4.10993 49.4559 4.18095 49.2215 4.24271C48.7466 4.36314 48.2534 4.53297 47.7297 4.69971C46.6916 5.0579 45.5713 5.50873 44.4296 6.06455C43.2941 6.62962 42.2529 7.25028 41.3335 7.8555C40.8799 8.17047 40.4446 8.46072 40.0579 8.76333C39.8631 8.91155 39.6683 9.05051 39.4917 9.19255C39.3151 9.33768 39.1477 9.47663 38.9833 9.60632C37.6985 10.6747 36.977 11.4282 36.9253 11.3787C36.904 11.3571 37.0653 11.1533 37.3758 10.7951C37.5281 10.616 37.7229 10.3999 37.9634 10.1652C38.2009 9.93054 38.4657 9.64955 38.7854 9.37473C38.9437 9.23269 39.1081 9.08756 39.2816 8.93317C39.4551 8.78186 39.6469 8.63364 39.8387 8.47616C40.2193 8.15503 40.6546 7.84933 41.1082 7.52202C42.0307 6.889 43.084 6.24982 44.2379 5.67548C45.3978 5.1104 46.5424 4.66575 47.6019 4.32299C48.1377 4.16551 48.6431 4.00494 49.1271 3.89996C49.3676 3.84438 49.599 3.77953 49.8243 3.7363C50.0496 3.69307 50.2657 3.65293 50.4727 3.61279C50.8837 3.52633 51.2643 3.48927 51.5931 3.44295C51.9249 3.39664 52.2111 3.37502 52.4455 3.36267C52.9234 3.33488 53.1822 3.33488 53.1853 3.36267Z" fill="#B8AC98"/>
</g>
</g>
</g>
</g>
<defs>
<clipPath id="clip0_1_1203">
<rect width="80" height="53" fill="white"/>
</clipPath>
</defs>
</svg>
