<svg width="150" height="224" viewBox="0 0 150 224" fill="none" xmlns="http://www.w3.org/2000/svg">
<g id="Frame" clip-path="url(#clip0_1_666)">
<g id="Group">
<g id="Group_2">
<g id="Group_3">
<g id="Group_4">
<path id="Vector" d="M142.712 120.533H117.924V150.033H142.712V120.533Z" fill="#F5F5F5"/>
</g>
<g id="Group_5">
<path id="Vector_2" d="M118.778 118.608H6.75116V151.89H118.778V118.608Z" fill="#1AA928"/>
</g>
<g id="Group_6">
<path id="Vector_3" d="M143.464 121.404H115.775V118.608H143.464C144.238 118.608 144.86 119.236 144.86 120.006C144.86 120.782 144.238 121.404 143.464 121.404Z" fill="#1AA928"/>
</g>
<g id="Group_7">
<path id="Vector_4" d="M143.464 151.884H115.775V149.088H143.464C144.238 149.088 144.86 149.716 144.86 150.486C144.86 151.262 144.238 151.884 143.464 151.884Z" fill="#1AA928"/>
</g>
<g id="Group_8" opacity="0.4">
<path id="Vector_5" opacity="0.4" d="M109.968 118.608H96.7319V151.89H109.968V118.608Z" fill="black"/>
</g>
<g id="Group_9" opacity="0.4">
<path id="Vector_6" opacity="0.4" d="M29.9276 118.608H16.6912V151.89H29.9276V118.608Z" fill="black"/>
</g>
<g id="Group_10">
<g id="Group_11">
<path id="Vector_7" d="M142.712 125.412C142.712 125.491 137.346 125.559 130.731 125.559C124.11 125.559 118.749 125.491 118.749 125.412C118.749 125.332 124.115 125.265 130.731 125.265C137.346 125.265 142.712 125.327 142.712 125.412Z" fill="#E0E0E0"/>
</g>
</g>
<g id="Group_12">
<g id="Group_13">
<path id="Vector_8" d="M142.712 129.832C142.712 129.911 137.346 129.979 130.731 129.979C124.11 129.979 118.749 129.911 118.749 129.832C118.749 129.753 124.115 129.685 130.731 129.685C137.346 129.685 142.712 129.753 142.712 129.832Z" fill="#E0E0E0"/>
</g>
</g>
<g id="Group_14">
<g id="Group_15">
<path id="Vector_9" d="M142.712 135.283C142.712 135.362 137.346 135.43 130.731 135.43C124.11 135.43 118.749 135.362 118.749 135.283C118.749 135.204 124.115 135.136 130.731 135.136C137.346 135.136 142.712 135.198 142.712 135.283Z" fill="#E0E0E0"/>
</g>
</g>
<g id="Group_16">
<g id="Group_17">
<path id="Vector_10" d="M142.712 140.728C142.712 140.807 137.346 140.875 130.731 140.875C124.11 140.875 118.749 140.807 118.749 140.728C118.749 140.649 124.115 140.581 130.731 140.581C137.346 140.581 142.712 140.649 142.712 140.728Z" fill="#E0E0E0"/>
</g>
</g>
<g id="Group_18">
<g id="Group_19">
<path id="Vector_11" d="M142.712 146.173C142.712 146.252 137.346 146.32 130.731 146.32C124.11 146.32 118.749 146.252 118.749 146.173C118.749 146.094 124.115 146.026 130.731 146.026C137.346 146.026 142.712 146.094 142.712 146.173Z" fill="#E0E0E0"/>
</g>
</g>
</g>
<g id="Group_20" opacity="0.2">
<path id="Vector_12" opacity="0.2" d="M89.619 132.283H39.2176V138.277H89.619V132.283Z" fill="black"/>
</g>
</g>
<g id="Group_21">
<g id="Group_22">
<path id="Vector_13" d="M142.457 152.541H117.291V170.517H142.457V152.541Z" fill="#FAFAFA"/>
</g>
<g id="Group_23">
<path id="Vector_14" d="M117.573 151.884H10.4603V171.163H117.573V151.884Z" fill="#455A64"/>
</g>
<g id="Group_24">
<path id="Vector_15" d="M116.793 153.192H143.848C144.21 153.192 144.498 152.897 144.498 152.541C144.498 152.179 144.204 151.89 143.848 151.89H116.793V153.192Z" fill="#455A64"/>
</g>
<g id="Group_25">
<path id="Vector_16" d="M116.793 171.168H143.848C144.21 171.168 144.498 170.874 144.498 170.517C144.498 170.155 144.204 169.866 143.848 169.866H116.793V171.168Z" fill="#455A64"/>
</g>
<g id="Group_26">
<g id="Group_27">
<path id="Vector_17" d="M142.463 155.954C142.463 156.033 136.894 156.101 130.018 156.101C123.143 156.101 117.573 156.033 117.573 155.954C117.573 155.875 123.143 155.807 130.018 155.807C136.888 155.807 142.463 155.875 142.463 155.954Z" fill="#E0E0E0"/>
</g>
</g>
<g id="Group_28">
<g id="Group_29">
<path id="Vector_18" d="M142.463 159.356C142.463 159.435 136.894 159.503 130.018 159.503C123.143 159.503 117.573 159.435 117.573 159.356C117.573 159.276 123.143 159.208 130.018 159.208C136.888 159.208 142.463 159.271 142.463 159.356Z" fill="#E0E0E0"/>
</g>
</g>
<g id="Group_30">
<g id="Group_31">
<path id="Vector_19" d="M142.463 162.757C142.463 162.837 136.894 162.904 130.018 162.904C123.143 162.904 117.573 162.837 117.573 162.757C117.573 162.678 123.143 162.61 130.018 162.61C136.888 162.61 142.463 162.672 142.463 162.757Z" fill="#E0E0E0"/>
</g>
</g>
<g id="Group_32">
<g id="Group_33">
<path id="Vector_20" d="M142.463 166.153C142.463 166.233 136.894 166.301 130.018 166.301C123.143 166.301 117.573 166.233 117.573 166.153C117.573 166.074 123.143 166.006 130.018 166.006C136.888 166.006 142.463 166.074 142.463 166.153Z" fill="#E0E0E0"/>
</g>
</g>
<g id="Group_34">
<path id="Vector_21" d="M101.023 158.79H27.1572V163.821H101.023V158.79Z" fill="#263238"/>
</g>
</g>
<g id="Group_35">
<g id="Group_36">
<path id="Vector_22" d="M146.28 172.878H120.587V221.606H146.28V172.878Z" fill="#EBEBEB"/>
</g>
<g id="Group_37">
<path id="Vector_23" d="M120.587 171.168H0V224H120.587V171.168Z" fill="#1AA928"/>
</g>
<g id="Group_38">
<path id="Vector_24" d="M148.287 224H117.291V220.576H148.287C149.231 220.576 150 221.345 150 222.291C150 223.236 149.237 224 148.287 224Z" fill="#1AA928"/>
</g>
<g id="Group_39">
<path id="Vector_25" d="M148.287 174.593H117.291V171.168H148.287C149.231 171.168 150 171.938 150 172.883C150 173.829 149.237 174.593 148.287 174.593Z" fill="#1AA928"/>
</g>
<g id="Group_40" opacity="0.4">
<path id="Vector_26" opacity="0.4" d="M94.6511 171.168L69.2864 224H90.7158L114.763 171.168H94.6511Z" fill="white"/>
</g>
<g id="Group_41" opacity="0.4">
<path id="Vector_27" opacity="0.4" d="M54.6365 171.168L29.2775 224H50.7012L74.7541 171.168H54.6365Z" fill="white"/>
</g>
<g id="Group_42">
<g id="Group_43">
<path id="Vector_28" d="M146.28 179.409C146.28 179.489 140.529 179.557 133.433 179.557C126.337 179.557 120.587 179.489 120.587 179.409C120.587 179.33 126.337 179.262 133.433 179.262C140.529 179.262 146.28 179.33 146.28 179.409Z" fill="#E0E0E0"/>
</g>
</g>
<g id="Group_44">
<g id="Group_45">
<path id="Vector_29" d="M146.28 185.664C146.28 185.743 140.529 185.811 133.433 185.811C126.337 185.811 120.587 185.743 120.587 185.664C120.587 185.585 126.337 185.517 133.433 185.517C140.529 185.517 146.28 185.579 146.28 185.664Z" fill="#E0E0E0"/>
</g>
</g>
<g id="Group_46">
<g id="Group_47">
<path id="Vector_30" d="M146.28 191.913C146.28 191.992 140.529 192.06 133.433 192.06C126.337 192.06 120.587 191.992 120.587 191.913C120.587 191.833 126.337 191.766 133.433 191.766C140.529 191.766 146.28 191.828 146.28 191.913Z" fill="#E0E0E0"/>
</g>
</g>
<g id="Group_48">
<g id="Group_49">
<path id="Vector_31" d="M146.28 198.161C146.28 198.241 140.529 198.309 133.433 198.309C126.337 198.309 120.587 198.241 120.587 198.161C120.587 198.082 126.337 198.014 133.433 198.014C140.529 198.014 146.28 198.082 146.28 198.161Z" fill="#E0E0E0"/>
</g>
</g>
<g id="Group_50">
<g id="Group_51">
<path id="Vector_32" d="M146.28 204.41C146.28 204.489 140.529 204.557 133.433 204.557C126.337 204.557 120.587 204.489 120.587 204.41C120.587 204.331 126.337 204.263 133.433 204.263C140.529 204.263 146.28 204.331 146.28 204.41Z" fill="#E0E0E0"/>
</g>
</g>
<g id="Group_52">
<g id="Group_53">
<path id="Vector_33" d="M146.28 210.659C146.28 210.738 140.529 210.806 133.433 210.806C126.337 210.806 120.587 210.738 120.587 210.659C120.587 210.58 126.337 210.512 133.433 210.512C140.529 210.512 146.28 210.58 146.28 210.659Z" fill="#E0E0E0"/>
</g>
</g>
<g id="Group_54">
<g id="Group_55">
<path id="Vector_34" d="M146.28 216.908C146.28 216.987 140.529 217.055 133.433 217.055C126.337 217.055 120.587 216.987 120.587 216.908C120.587 216.829 126.337 216.761 133.433 216.761C140.529 216.761 146.28 216.829 146.28 216.908Z" fill="#E0E0E0"/>
</g>
</g>
</g>
</g>
<g id="Group_56">
<g id="Group_57">
<g id="Group_58">
<path id="Vector_35" d="M130.991 29.2176L123.114 16.5729C122.939 16.2899 122.526 16.2955 122.357 16.5842L114.633 29.9478L130.991 29.2176Z" fill="#1AA928"/>
</g>
<g id="Group_59" opacity="0.3">
<path id="Vector_36" opacity="0.3" d="M130.991 29.2176L123.114 16.5729C122.939 16.2899 122.526 16.2955 122.357 16.5842L114.633 29.9478L130.991 29.2176Z" fill="black"/>
</g>
<g id="Group_60">
<path id="Vector_37" d="M123.12 17.1729L130.476 29.1667L128.605 28.8724L116.589 26.9819L121.062 17.5464L123.12 17.1729Z" fill="#EBEBEB"/>
</g>
<g id="Group_61">
<path id="Vector_38" d="M123.906 40.753L130.991 29.2176L112.637 25.8385C112.038 25.731 111.438 26.0027 111.127 26.5291L100.78 44.0811C100.464 44.6189 100.78 45.3151 101.397 45.4226L118.642 48.4847L123.906 40.753Z" fill="#1AA928"/>
</g>
<g id="Group_62">
<path id="Vector_39" d="M119.009 17.8973L129.193 28.9346L114.407 26.1611L119.009 17.8973Z" fill="#EBEBEB"/>
</g>
<g id="Group_63">
<g id="Group_64">
<path id="Vector_40" d="M114.407 26.1612C114.401 26.1555 114.424 26.1046 114.475 26.0027C114.537 25.8782 114.61 25.731 114.706 25.5499C114.933 25.131 115.232 24.565 115.611 23.8575C116.42 22.3745 117.551 20.3086 118.908 17.8408L118.992 17.6879L119.111 17.8181C121.039 19.901 123.318 22.3575 125.749 24.9839C126.987 26.331 128.186 27.6328 129.3 28.8384L129.079 29.0195C126.761 25.731 124.748 22.8839 123.295 20.8237C122.6 19.8218 122.046 19.0181 121.639 18.4294C121.463 18.1634 121.316 17.954 121.203 17.7842C121.107 17.637 121.062 17.5578 121.067 17.5521C121.073 17.5464 121.135 17.62 121.243 17.7559C121.367 17.92 121.52 18.1238 121.712 18.3785C122.136 18.9558 122.718 19.7426 123.437 20.7274C124.912 22.7707 126.948 25.5951 129.306 28.861L129.085 29.0422C127.971 27.8366 126.767 26.5347 125.529 25.1933C123.109 22.5557 120.841 20.0878 118.919 17.9992L119.122 17.9766C117.731 20.4274 116.572 22.4708 115.736 23.9424C115.334 24.6329 115.012 25.1933 114.769 25.6008C114.661 25.7763 114.576 25.9178 114.509 26.031C114.446 26.1159 114.412 26.1668 114.407 26.1612Z" fill="#263238"/>
</g>
</g>
<g id="Group_65" opacity="0.3">
<path id="Vector_41" opacity="0.3" d="M114.61 30.9609C114.452 31.1987 108.436 41.2397 108.436 41.2397L118.24 43.0736L124.748 32.6646L114.61 30.9609Z" fill="white"/>
</g>
</g>
<g id="Group_66">
<g id="Group_67">
<g id="Group_68">
<g id="Group_69">
<path id="Vector_42" d="M40.8346 202.152L46.223 195.105L46.5001 194.737L55.6825 201.575L47.1786 210.925L47.4952 220.394C52.2334 221.623 52.9402 223.989 52.9402 223.989L43.0963 223.977L34.157 206.737L40.8346 202.152Z" fill="#455A64"/>
</g>
<g id="Group_70">
<path id="Vector_43" d="M34.157 206.737L43.0963 223.977L52.9402 223.989C52.714 223.445 52.3408 222.953 51.832 222.506L43.8256 222.059L35.5705 205.763L34.157 206.737Z" fill="#EBEBEB"/>
</g>
</g>
<g id="Group_71">
<g id="Group_72">
<path id="Vector_44" d="M47.433 216.059C47.3594 216.161 46.794 215.838 46.0307 215.855C45.2674 215.855 44.7076 216.195 44.6341 216.093C44.5437 216.019 45.0978 215.431 46.0251 215.419C46.9523 215.408 47.5234 215.98 47.433 216.059Z" fill="#263238"/>
</g>
</g>
<g id="Group_73">
<g id="Group_74">
<path id="Vector_45" d="M47.2746 213.71C47.1785 213.778 46.7375 213.195 45.9516 213.042C45.1656 212.878 44.538 213.246 44.4758 213.144C44.4419 213.099 44.555 212.934 44.832 212.782C45.1034 212.629 45.5501 212.516 46.0364 212.612C46.5226 212.708 46.8901 212.991 47.0824 213.234C47.2803 213.489 47.3255 213.682 47.2746 213.71Z" fill="#263238"/>
</g>
</g>
<g id="Group_75">
<g id="Group_76">
<path id="Vector_46" d="M47.3426 210.699C47.2352 210.755 46.9016 210.184 46.2118 209.946C45.5276 209.697 44.9113 209.929 44.8604 209.821C44.8322 209.77 44.9566 209.635 45.2336 209.533C45.4994 209.431 45.9291 209.385 46.3588 209.538C46.7885 209.691 47.0938 209.991 47.2352 210.24C47.3822 210.489 47.3935 210.676 47.3426 210.699Z" fill="#263238"/>
</g>
</g>
<g id="Group_77">
<g id="Group_78">
<path id="Vector_47" d="M49.9775 208.361C49.8587 208.401 49.5817 207.84 48.971 207.444C48.3717 207.031 47.7497 206.991 47.7441 206.867C47.7101 206.754 48.4735 206.584 49.2142 207.087C49.9605 207.58 50.0962 208.35 49.9775 208.361Z" fill="#263238"/>
</g>
</g>
<g id="Group_79">
<g id="Group_80">
<path id="Vector_48" d="M51.261 206.34C51.2101 206.374 50.8878 205.978 50.4015 205.31C50.1301 204.92 49.8531 204.529 49.5703 204.127C49.429 203.895 49.2311 203.697 49.1124 203.329C49.0615 203.148 49.0671 202.927 49.1746 202.729C49.2763 202.52 49.5534 202.39 49.7682 202.418C50.198 202.48 50.4354 202.701 50.6899 202.893C50.933 203.103 51.1309 203.335 51.2892 203.578C51.6059 204.065 51.7529 204.574 51.8038 204.999C51.8999 205.871 51.6115 206.369 51.5776 206.346C51.5041 206.329 51.6624 205.825 51.4984 205.05C51.4136 204.665 51.2496 204.223 50.9556 203.805C50.8086 203.595 50.6277 203.397 50.4128 203.222C50.2036 203.052 49.9379 202.871 49.7343 202.848C49.6382 202.842 49.5873 202.871 49.5477 202.939C49.5081 203.012 49.4968 203.12 49.5195 203.216C49.5703 203.425 49.7626 203.669 49.8983 203.901C50.1527 204.32 50.4072 204.733 50.6503 205.135C51.08 205.848 51.3118 206.306 51.261 206.34Z" fill="#263238"/>
</g>
</g>
<g id="Group_81">
<g id="Group_82">
<path id="Vector_49" d="M51.6171 206.629C51.5718 206.623 51.6058 206.108 52.1429 205.514C52.6631 204.954 53.7996 204.354 55.0605 204.988C55.1509 205.067 55.2188 205.203 55.2131 205.339C55.2075 205.474 55.1509 205.576 55.0944 205.65C54.9757 205.803 54.8513 205.876 54.7438 205.961C54.5177 206.12 54.2802 206.255 54.0484 206.357C53.5847 206.572 53.1324 206.674 52.7536 206.72C51.9903 206.799 51.5266 206.652 51.5379 206.606C51.5436 206.538 52.0016 206.572 52.7027 206.42C53.0532 206.34 53.4603 206.216 53.8731 206.001C54.0823 205.893 54.2915 205.769 54.4951 205.616C54.5968 205.537 54.7043 205.463 54.7495 205.395C54.8004 205.31 54.7834 205.333 54.7665 205.31C54.7325 205.276 54.6025 205.231 54.4838 205.203C54.365 205.174 54.2406 205.152 54.1162 205.146C53.8731 205.129 53.6356 205.146 53.4151 205.197C52.9741 205.293 52.6122 205.508 52.3521 205.735C51.8263 206.205 51.6793 206.657 51.6171 206.629Z" fill="#263238"/>
</g>
</g>
<g id="Group_83">
<path id="Vector_50" d="M42.0107 206.442C42.0107 207.088 41.4905 207.614 40.8403 207.614C40.1957 207.614 39.6699 207.093 39.6699 206.442C39.6699 205.797 40.19 205.271 40.8403 205.271C41.4849 205.276 42.0107 205.797 42.0107 206.442Z" fill="#EBEBEB"/>
</g>
</g>
<g id="Group_84" opacity="0.3">
<path id="Vector_51" opacity="0.3" d="M54.8286 202.52L52.9401 204.597L44.9904 196.718L46.0986 195.275L54.8286 202.52Z" fill="black"/>
</g>
</g>
<g id="Group_85">
<g id="Group_86">
<g id="Group_87">
<path id="Vector_52" d="M79.3621 205.735L78.3557 217.717C78.3557 217.717 90.1842 221.759 90.2125 223.989L66.9342 223.875L67.7371 205.14L79.3621 205.735Z" fill="#455A64"/>
</g>
<g id="Group_88">
<g id="Group_89">
<path id="Vector_53" d="M71.2088 216.364C70.7508 216.466 70.4172 216.959 70.502 217.417C70.5868 217.876 71.0844 218.227 71.5424 218.13C72.0003 218.034 72.4188 217.457 72.2887 217.01C72.153 216.563 71.548 216.189 71.1296 216.387" fill="#EBEBEB"/>
</g>
</g>
<g id="Group_90">
<path id="Vector_54" d="M66.9399 223.881L67.0191 222.013L89.0591 222.545C89.0591 222.545 90.2296 223.479 90.2183 223.994L66.9399 223.881Z" fill="#EBEBEB"/>
</g>
<g id="Group_91">
<g id="Group_92">
<path id="Vector_55" d="M78.7402 217.615C78.7289 217.729 78.1579 217.751 77.5811 218.091C76.9931 218.413 76.6821 218.895 76.5803 218.844C76.4786 218.815 76.6765 218.142 77.3832 217.745C78.09 217.344 78.7685 217.513 78.7402 217.615Z" fill="#263238"/>
</g>
</g>
<g id="Group_93">
<g id="Group_94">
<path id="Vector_56" d="M81.1318 218.747C81.1544 218.861 80.6512 219.03 80.2441 219.489C79.82 219.942 79.7013 220.457 79.5882 220.445C79.4808 220.457 79.4356 219.789 79.9557 219.223C80.4646 218.651 81.1375 218.64 81.1318 218.747Z" fill="#263238"/>
</g>
</g>
<g id="Group_95">
<g id="Group_96">
<path id="Vector_57" d="M82.3815 221.736C82.2797 221.753 82.144 221.181 82.4663 220.57C82.7829 219.959 83.3314 219.738 83.3766 219.834C83.4388 219.93 83.0769 220.247 82.8168 220.751C82.5511 221.255 82.4945 221.73 82.3815 221.736Z" fill="#263238"/>
</g>
</g>
<g id="Group_97">
<g id="Group_98">
<path id="Vector_58" d="M78.6666 214.859C78.6158 214.961 78.1012 214.78 77.4566 214.791C76.8121 214.791 76.3032 214.983 76.2466 214.882C76.1845 214.797 76.6933 214.4 77.451 214.395C78.2143 214.389 78.7288 214.774 78.6666 214.859Z" fill="#263238"/>
</g>
</g>
</g>
<g id="Group_99">
<g id="Group_100">
<path id="Vector_59" d="M78.825 212.442C78.825 212.487 78.3727 212.538 77.6602 212.38C77.304 212.301 76.8913 212.165 76.4559 211.944C76.241 211.836 76.0205 211.706 75.8057 211.553C75.7039 211.48 75.5795 211.406 75.4664 211.265C75.3477 211.14 75.2911 210.835 75.4438 210.659C75.5738 210.484 75.7887 210.421 75.9527 210.421C76.1223 210.421 76.2636 210.467 76.388 210.501C76.6425 210.574 76.8856 210.676 77.1005 210.784C77.5358 211.01 77.8864 211.282 78.1408 211.542C78.6554 212.068 78.8193 212.504 78.7798 212.521C78.7289 212.555 78.4801 212.187 77.9486 211.746C77.6828 211.525 77.3436 211.299 76.9365 211.112C76.7329 211.021 76.5124 210.936 76.2749 210.874C76.0318 210.795 75.8226 210.784 75.7548 210.891C75.7321 210.931 75.7265 210.948 75.7717 211.021C75.8226 211.089 75.9187 211.163 76.0205 211.236C76.2184 211.384 76.422 211.508 76.6198 211.616C77.0156 211.836 77.4001 211.995 77.7281 212.102C78.3953 212.329 78.8307 212.38 78.825 212.442Z" fill="#263238"/>
</g>
</g>
<g id="Group_101">
<g id="Group_102">
<path id="Vector_60" d="M78.6723 212.595C78.6327 212.612 78.4235 212.193 78.4178 211.451C78.4178 211.084 78.4744 210.642 78.6384 210.184C78.7232 209.951 78.8306 209.719 78.972 209.487C79.119 209.261 79.2999 208.961 79.7466 208.933C79.9784 208.933 80.1593 209.125 80.2159 209.284C80.2837 209.442 80.295 209.584 80.3177 209.719C80.3459 209.991 80.329 210.263 80.2781 210.506C80.1819 210.999 79.9558 211.4 79.724 211.689C79.2377 212.272 78.7571 212.385 78.7514 212.346C78.7175 212.289 79.1246 212.085 79.4978 211.525C79.6844 211.248 79.854 210.88 79.9219 210.444C79.9558 210.229 79.9614 210.002 79.9332 209.77C79.9105 209.521 79.8257 209.318 79.7296 209.34C79.6165 209.335 79.4073 209.51 79.3055 209.702C79.1755 209.906 79.0681 210.116 78.9889 210.319C78.8249 210.733 78.7401 211.134 78.7062 211.474C78.6327 212.148 78.7345 212.583 78.6723 212.595Z" fill="#263238"/>
</g>
</g>
</g>
<g id="Group_103">
<g id="Group_104">
<g id="Group_105">
<path id="Vector_61" d="M126.575 44.5283C126.801 43.8547 126.773 43.1246 126.496 42.468C125.529 40.1813 123.267 35.1042 122.453 35.2513C121.729 35.3815 121.192 36.7626 122.017 38.2852L119.354 36.0155C118.812 35.5513 117.975 36.0155 118.093 36.7173C118.139 37.0003 118.24 37.3343 118.421 37.7135C119.247 39.4681 121.543 41.1322 121.543 41.1322L116.906 41.1605C116.906 41.1605 116.041 42.3718 117.63 43.1869C117.986 43.368 118.382 43.4699 118.783 43.5095L121.181 43.7529C121.181 43.7529 116.85 48.547 116.703 48.9942C116.375 50.0017 116.318 51.2016 116.318 51.2016L108.006 60.4616L110.229 74.5327L125.246 48.5187L126.575 44.5283Z" fill="#FFBE9D"/>
</g>
<g id="Group_106">
<g id="Group_107">
<path id="Vector_62" d="M125.37 42.4057C125.331 42.434 125.178 42.2133 124.85 41.9643C124.528 41.7152 124.002 41.4605 123.386 41.3473C122.764 41.2398 122.176 41.2567 121.752 41.2567C121.328 41.2624 121.056 41.2567 121.056 41.2171C121.051 41.1775 121.311 41.1096 121.74 41.053C122.164 40.9964 122.775 40.9398 123.442 41.0586C124.109 41.1775 124.675 41.4888 124.992 41.8058C125.308 42.1227 125.399 42.3944 125.37 42.4057Z" fill="#AA6550"/>
</g>
</g>
<g id="Group_108">
<g id="Group_109">
<path id="Vector_63" d="M125.444 40.9624C125.393 41.0247 124.551 40.4474 123.555 39.6606C122.566 38.8795 121.803 38.1946 121.848 38.1267C121.899 38.0644 122.741 38.6418 123.736 39.4285C124.731 40.2096 125.495 40.8945 125.444 40.9624Z" fill="#AA6550"/>
</g>
</g>
</g>
</g>
<g id="Group_110">
<g id="Group_111">
<g id="Group_112">
<path id="Vector_64" d="M84.4511 110.344C84.5755 110.361 85.0052 138.056 85.1974 150.571C85.254 154.505 84.2419 158.382 82.2685 161.784L55.2133 209.368L39.6755 196.418L64.8084 153.905L55.5582 109.088L73.8777 93.3187L84.4511 110.344Z" fill="#3B4A51"/>
</g>
<g id="Group_113">
<path id="Vector_65" d="M97.5971 104.679C97.5179 106.275 82.9019 209.131 82.9019 209.131L64.8028 207.835L71.4408 104.033L97.5971 104.679Z" fill="#3B4A51"/>
</g>
<g id="Group_114">
<g id="Group_115">
<path id="Vector_66" d="M82.4438 111.901C82.4438 111.901 82.4607 111.991 82.4777 112.173C82.4946 112.365 82.5229 112.625 82.5512 112.965C82.6134 113.678 82.6982 114.703 82.8113 116.016C83.0205 118.682 83.3202 122.519 83.6933 127.251C84.0439 132 84.4623 137.649 84.9259 143.92C85.0277 145.488 85.1351 147.101 85.2426 148.743C85.2822 149.563 85.3557 150.401 85.3274 151.245C85.3048 152.094 85.2256 152.943 85.0786 153.792C84.7959 155.495 84.2587 157.182 83.5067 158.795C83.1336 159.605 82.6812 160.38 82.2515 161.161C81.8161 161.942 81.3751 162.729 80.9341 163.521C73.8494 176.189 67.4432 187.656 62.7954 195.971C60.4659 200.109 58.5831 203.459 57.2713 205.786C56.6211 206.935 56.1065 207.829 55.756 208.446C55.5864 208.74 55.4507 208.967 55.3545 209.136C55.2641 209.289 55.2075 209.368 55.2075 209.368C55.2075 209.368 55.2414 209.284 55.3263 209.125C55.4167 208.955 55.5411 208.723 55.6994 208.423C56.0387 207.795 56.5363 206.895 57.1695 205.735C58.4643 203.397 60.3189 200.029 62.6145 195.875C67.2453 187.549 73.6289 176.07 80.6796 163.386C81.1207 162.593 81.5617 161.806 81.9971 161.025C82.4324 160.238 82.8791 159.474 83.2466 158.676C83.993 157.086 84.5188 155.427 84.7959 153.752C84.9373 152.914 85.0221 152.077 85.039 151.245C85.0673 150.412 84.9938 149.586 84.9542 148.765C84.8468 147.124 84.745 145.516 84.6432 143.949C84.2022 137.677 83.8064 132.028 83.4785 127.28C83.1449 122.542 82.8735 118.704 82.6869 116.038C82.6021 114.72 82.5342 113.695 82.4833 112.982C82.4664 112.642 82.4494 112.376 82.4381 112.184C82.4438 111.991 82.4438 111.901 82.4438 111.901Z" fill="#67818E"/>
</g>
</g>
<g id="Group_116">
<g id="Group_117">
<path id="Vector_67" d="M70.0724 160.538C70.0667 160.555 69.9367 160.538 69.7049 160.476C69.473 160.425 69.1451 160.306 68.7606 160.125C67.986 159.763 66.9965 159.05 66.2049 157.997C65.419 156.939 65.0175 155.79 64.8875 154.941C64.8196 154.516 64.797 154.171 64.814 153.933C64.8253 153.695 64.8423 153.565 64.8592 153.565C64.9101 153.565 64.9101 154.092 65.091 154.901C65.2663 155.71 65.6847 156.803 66.4367 157.822C67.2001 158.835 68.1273 159.542 68.8511 159.939C69.5861 160.34 70.0894 160.488 70.0724 160.538Z" fill="#67818E"/>
</g>
</g>
<g id="Group_118">
<g id="Group_119">
<path id="Vector_68" d="M72.125 157.442C72.125 157.471 71.6218 157.539 70.8076 157.437C69.999 157.341 68.8908 157.029 67.8052 156.395C66.7253 155.756 65.9111 154.941 65.4305 154.284C64.9442 153.622 64.752 153.152 64.7802 153.141C64.8255 153.118 65.0799 153.548 65.5888 154.154C66.0977 154.765 66.9062 155.524 67.9522 156.141C68.9983 156.752 70.0556 157.08 70.8415 157.233C71.6218 157.386 72.125 157.391 72.125 157.442Z" fill="#67818E"/>
</g>
</g>
<g id="Group_120">
<g id="Group_121">
<path id="Vector_69" d="M59.3691 113.384C59.3917 113.367 59.4935 113.548 59.8044 113.684C60.1098 113.825 60.6356 113.865 61.1784 113.588C61.7212 113.316 62.3036 112.824 62.9595 112.314C63.6097 111.793 64.3052 111.199 65.0006 110.537C66.4029 109.224 67.5337 107.899 68.3197 106.914C69.0999 105.924 69.5466 105.284 69.5862 105.307C69.6032 105.318 69.5127 105.488 69.3261 105.794C69.1395 106.094 68.8568 106.524 68.4836 107.039C67.7373 108.063 66.6177 109.422 65.2042 110.752C64.4974 111.42 63.7907 112.014 63.1291 112.524C62.4563 113.027 61.8682 113.497 61.2632 113.769C60.6582 114.046 60.0645 113.967 59.7479 113.78C59.4256 113.599 59.3578 113.384 59.3691 113.384Z" fill="#67818E"/>
</g>
</g>
<g id="Group_122">
<g id="Group_123">
<path id="Vector_70" d="M69.4449 112.546C69.4789 112.563 69.2357 113.186 68.7325 114.142C68.2236 115.088 67.4207 116.401 66.1259 117.476C64.8255 118.552 63.2875 118.999 62.1906 118.982C61.6421 118.982 61.2011 118.897 60.9128 118.801C60.6244 118.704 60.4717 118.625 60.4774 118.608C60.4943 118.552 61.122 118.823 62.185 118.772C63.2366 118.733 64.6898 118.28 65.9393 117.25C67.1833 116.214 67.9975 114.952 68.5516 114.04C69.0944 113.118 69.3997 112.524 69.4449 112.546Z" fill="#67818E"/>
</g>
</g>
</g>
<g id="Group_124">
<path id="Vector_71" d="M97.5971 104.679C97.5971 104.679 83.6256 111.205 78.6216 108.958C73.612 106.711 70.3326 101.526 66.7082 102.737C63.0839 103.948 57.5541 104.984 55.6543 110.169C55.6543 110.169 54.45 109.082 54.45 106.914C54.45 104.899 56.1462 102.165 56.1462 102.165L53.8732 78.8117L53.9694 39.5474C53.9694 39.5474 57.8594 33.7457 68.3932 34.091L82.9414 36.1852C82.9414 36.1852 90.3654 38.4323 92.4405 42.2359C94.5155 46.0395 93.6448 73.0724 93.6448 73.0724C93.6448 73.0724 98.253 99.3128 98.253 101.362C98.2473 103.405 97.5971 104.679 97.5971 104.679Z" fill="#EB763C"/>
</g>
<g id="Group_125">
<path id="Vector_72" d="M105.863 60.0427L99.8644 65.3972L92.4404 42.2303L86.2039 56.1825L88.7143 78.8061C89.1158 82.4342 91.745 85.4228 95.2901 86.2831C98.0494 86.951 100.961 86.2265 103.082 84.3417L109.42 78.9193C110.325 78.1438 110.766 76.9552 110.579 75.7779L108.221 60.8804C108.035 59.771 106.7 59.2956 105.863 60.0427Z" fill="#EB763C"/>
</g>
<g id="Group_126">
<path id="Vector_73" d="M60.4434 53.7713C60.4434 54.292 57.6559 79.5758 57.6559 79.5758L69.4675 105.16C68.3028 107.571 66.1202 109.761 63.6833 111.901C63.6833 111.901 60.664 109.133 60.4887 103.258C60.4887 103.258 47.0656 87.4717 45.6803 83.3229C44.3007 79.174 48.1003 50.8393 48.1003 50.8393L60.4434 53.7713Z" fill="#FFBE9D"/>
</g>
<g id="Group_127">
<g id="Group_128">
<path id="Vector_74" d="M90.4502 58.1805C90.4671 58.1918 90.3766 58.373 90.207 58.6956C90.0317 59.0182 89.7717 59.4767 89.4437 60.0371C89.1045 60.5974 88.7539 61.2823 88.2337 61.9955C87.968 62.3464 87.64 62.6973 87.216 62.952C86.7919 63.2067 86.2887 63.3596 85.7685 63.3765C84.7225 63.4218 83.7726 63.0313 83.0545 62.5162C82.342 61.9898 81.8388 61.3672 81.4543 60.8351C81.0755 60.2974 80.8154 59.839 80.6345 59.5163C80.4592 59.1937 80.3744 59.0126 80.3913 59.0012C80.4366 58.9729 80.8493 59.6748 81.624 60.705C82.0198 61.2144 82.523 61.803 83.2128 62.2898C83.8913 62.7652 84.796 63.1162 85.7515 63.0766C86.2265 63.0596 86.6788 62.9237 87.0633 62.6973C87.4478 62.4709 87.7531 62.154 88.0132 61.8257C88.5221 61.1521 88.9009 60.4672 89.2571 59.9239C89.6077 59.3748 89.896 58.9333 90.0996 58.6277C90.3145 58.3277 90.4332 58.1692 90.4502 58.1805Z" fill="#263238"/>
</g>
</g>
<g id="Group_129">
<g id="Group_130">
<path id="Vector_75" d="M99.1519 79.157C99.135 79.1627 99.0501 78.9815 98.9258 78.6419C98.7901 78.308 98.6374 77.8042 98.4791 77.176C98.1568 75.9251 97.9023 74.1308 97.9985 72.1498C98.1002 70.1687 98.5356 68.4084 98.9823 67.1971C99.2028 66.5858 99.412 66.1047 99.576 65.7878C99.74 65.4651 99.8361 65.2897 99.853 65.301C99.8983 65.3236 99.5647 66.0481 99.1745 67.2651C98.7844 68.482 98.3886 70.2196 98.2868 72.1667C98.1907 74.1195 98.4112 75.8798 98.677 77.1307C98.9427 78.3816 99.2028 79.14 99.1519 79.157Z" fill="#263238"/>
</g>
</g>
<g id="Group_131">
<g id="Group_132">
<path id="Vector_76" d="M102.313 74.5157C102.284 74.5327 101.973 74.0855 101.578 73.2988C101.182 72.5177 100.718 71.3913 100.368 70.0951C100.023 68.799 99.8643 67.5877 99.8191 66.7104C99.7739 65.833 99.8134 65.2897 99.8474 65.2897C99.8926 65.2897 99.9265 65.8274 100.023 66.6877C100.119 67.5481 100.311 68.7367 100.65 70.0102C100.99 71.2894 101.419 72.4101 101.764 73.2026C102.115 74.012 102.352 74.4931 102.313 74.5157Z" fill="#263238"/>
</g>
</g>
<g id="Group_133">
<g id="Group_134">
<path id="Vector_77" d="M90.06 62.9181C90.0714 62.9124 90.1166 62.9973 90.1901 63.1671C90.2636 63.3369 90.3654 63.586 90.4728 63.9199C90.6763 64.5878 90.9195 65.5953 90.8403 66.8632C90.7781 68.1141 90.3201 69.6536 89.1836 70.9102C88.6182 71.5328 87.8945 72.0818 87.035 72.4214C86.1756 72.7611 85.1861 72.8516 84.2249 72.6592C83.2637 72.4667 82.3817 71.9969 81.7427 71.3177C81.1038 70.6328 80.7532 69.7838 80.5497 68.9744C80.3461 68.1594 80.2726 67.3726 80.2104 66.6368C80.1539 65.9066 80.0974 65.2274 80.0521 64.6048C79.9673 63.3935 79.8938 62.3973 79.8429 61.6559C79.826 61.3332 79.8146 61.0729 79.8033 60.8521C79.7977 60.671 79.7977 60.5691 79.809 60.5691C79.8203 60.5691 79.8373 60.6653 79.8655 60.8465C79.8938 61.0616 79.9221 61.3276 79.9617 61.6445C80.0408 62.386 80.1426 63.3765 80.267 64.5822C80.3292 65.2048 80.3914 65.884 80.4649 66.6141C80.5384 67.3386 80.6232 68.1197 80.8267 68.9008C81.0303 69.6819 81.3695 70.48 81.9689 71.114C82.5626 71.7479 83.3937 72.1837 84.2984 72.3648C85.2031 72.546 86.136 72.4667 86.9446 72.1498C87.7588 71.8385 88.4543 71.3177 88.9971 70.7291C90.0996 69.5348 90.5576 68.0631 90.6481 66.8462C90.7499 65.618 90.5407 64.6161 90.3767 63.9482C90.1844 63.286 90.0374 62.9294 90.06 62.9181Z" fill="#263238"/>
</g>
</g>
<g id="Group_135" opacity="0.2">
<g id="Group_136" opacity="0.2">
<path id="Vector_78" opacity="0.2" d="M61.4443 87.7774C61.7835 85.536 61.9814 84.5455 62.7956 82.4003C63.6098 80.2551 64.6672 78.1212 64.7011 75.8288C64.7237 74.3855 64.3336 72.9648 63.9491 71.5724C62.5751 66.6198 61.1955 61.6615 59.8215 56.7089C59.6689 60.5521 59.5105 64.3954 59.3579 68.2386C59.3183 69.1782 59.2957 70.18 59.7876 70.9781C60.3983 71.9743 61.6478 72.4101 62.3433 73.3497C62.8748 74.0685 63.0218 75.0591 62.7165 75.8968C62.4111 76.7345 61.6591 76.9552 60.7884 77.1646C60.2004 77.3061 60.189 77.3118 59.5897 77.408C58.996 77.5042 58.1422 77.3741 57.8708 77.9061C57.1867 79.2419 57.9161 80.0513 58.2044 80.6852C59.5162 83.6059 61.4443 87.7774 61.4443 87.7774Z" fill="black"/>
</g>
</g>
<g id="Group_137">
<path id="Vector_79" d="M56.4007 37.538C56.4007 37.538 44.2272 43.7019 42.531 76.576C42.4122 78.8401 44.4421 80.6173 46.6642 80.1985C51.6568 79.2476 59.2221 77.7816 59.1769 77.5779C59.1091 77.2722 62.0153 48.6432 62.0153 48.6432L56.4007 37.538Z" fill="#EB763C"/>
</g>
<g id="Group_138">
<g id="Group_139">
<path id="Vector_80" d="M61.7891 48.1338C61.8004 48.1338 61.8061 48.2866 61.8061 48.5753C61.8061 48.8639 61.8061 49.2885 61.7891 49.8375C61.7665 50.9299 61.7043 52.5147 61.5686 54.4675C61.4385 56.4202 61.2407 58.7409 60.9693 61.3106C60.8279 62.5954 60.6752 63.9426 60.5169 65.3406C60.4321 66.0368 60.3473 66.75 60.2568 67.4688C60.1946 68.2046 59.9515 68.9235 59.8384 69.6423C59.7875 69.9989 59.7593 70.3612 59.8328 70.6894C59.9063 71.0121 60.0929 71.329 60.3247 71.5724C60.7883 72.0818 61.4781 72.3535 62.0153 72.8686C62.5694 73.3837 62.8182 74.1025 62.9369 74.7817C62.9935 75.127 63.0161 75.4779 62.9652 75.8232C62.9199 76.1685 62.7956 76.5194 62.5355 76.7854C62.2754 77.0571 61.8796 77.1194 61.5912 77.1703C61.2802 77.2269 60.9806 77.2892 60.6809 77.3458C60.0815 77.4646 59.4992 77.5835 58.9394 77.6967C57.8199 77.9288 56.7682 78.1438 55.8126 78.342C53.9241 78.7325 52.3862 79.0551 51.2836 79.2815C51.0179 79.3325 50.7804 79.3834 50.5712 79.423C50.4694 79.4457 50.3733 79.4627 50.2885 79.4796L50.2546 79.4853H50.2489C50.2546 79.5023 50.215 79.3551 50.2319 79.4174H50.2376L50.2546 79.4117L50.3168 79.4004C50.3563 79.3947 50.3903 79.3834 50.4298 79.3778C50.7125 79.3268 50.8596 79.3042 50.8652 79.3098C50.8652 79.3212 50.7239 79.3608 50.4411 79.4344C50.4072 79.4457 50.3676 79.4513 50.3281 79.4627L50.2659 79.4796L50.2489 79.4853H50.2432C50.2546 79.5476 50.2206 79.4004 50.2263 79.4174H50.2319L50.2659 79.4117C50.3563 79.3891 50.4468 79.3664 50.5486 79.3438C50.7578 79.2929 50.9953 79.2363 51.2554 79.174C52.3523 78.9249 53.8845 78.574 55.7674 78.1438C56.723 77.9344 57.769 77.708 58.8885 77.4646C59.4539 77.3458 60.0307 77.2269 60.63 77.1024C60.9297 77.0401 61.235 76.9835 61.546 76.9213C61.8683 76.8647 62.1453 76.8137 62.3489 76.6043C62.7447 76.1798 62.7673 75.4723 62.6599 74.844C62.5411 74.2044 62.3036 73.5478 61.8117 73.095C61.3311 72.6309 60.6357 72.3592 60.1042 71.7932C59.8441 71.5045 59.6349 71.1762 59.5444 70.78C59.4539 70.3895 59.4879 69.9932 59.5444 69.6197C59.6631 68.8612 59.9006 68.1707 59.9628 67.4575C60.0533 66.7387 60.1381 66.0255 60.2286 65.3293C60.3925 63.9312 60.5452 62.5898 60.6979 61.3049C60.9806 58.7352 61.2011 56.4202 61.3594 54.4731C61.5177 52.5261 61.6138 50.9469 61.6704 49.8545C61.6986 49.3337 61.7213 48.9149 61.7382 48.5979C61.7665 48.2866 61.7835 48.1338 61.7891 48.1338Z" fill="#263238"/>
</g>
</g>
<g id="Group_140">
<g id="Group_141">
<path id="Vector_81" d="M56.7851 68.2895C56.802 68.2952 56.7794 68.431 56.7116 68.6801C56.6833 68.8046 56.6381 68.9574 56.5646 69.1216C56.4911 69.2914 56.4232 69.4895 56.3045 69.6819C56.0953 70.0951 55.7843 70.5479 55.3772 71.0007C54.9644 71.4479 54.4499 71.8894 53.8562 72.263C53.2512 72.6252 52.6292 72.8799 52.0469 73.0497C51.4588 73.2025 50.9104 73.2818 50.4524 73.2818C50.2206 73.2988 50.017 73.2705 49.8361 73.2591C49.6551 73.2478 49.5025 73.2195 49.3781 73.1912C49.1293 73.1346 48.9936 73.1007 48.9993 73.078C49.0106 73.0214 49.559 73.1346 50.4524 73.078C50.8934 73.0554 51.4192 72.9592 51.979 72.795C52.5388 72.6195 53.1325 72.3648 53.7148 72.0139C54.2859 71.6573 54.7835 71.2385 55.1906 70.8196C55.5864 70.3895 55.9087 69.9706 56.1348 69.5801C56.5815 68.8159 56.7285 68.2726 56.7851 68.2895Z" fill="#263238"/>
</g>
</g>
<g id="Group_142" opacity="0.2">
<g id="Group_143" opacity="0.2">
<path id="Vector_82" opacity="0.2" d="M69.9029 97.6204C75.5627 100.977 82.4891 101.781 88.9971 100.79C90.0657 100.626 91.1513 100.411 92.1012 99.8901C93.0511 99.3694 93.854 98.4864 94.0519 97.4223C94.2442 96.3525 93.6844 95.1299 92.661 94.7847C91.6263 94.4337 90.5237 94.9998 89.5512 95.4922C83.4447 98.577 76.1903 99.3071 69.5975 97.5072" fill="black"/>
</g>
</g>
<g id="Group_144">
<g id="Group_145">
<path id="Vector_83" d="M96.2683 98.1355C96.274 98.1411 96.1892 98.209 96.0252 98.3279C95.8556 98.4411 95.6181 98.6279 95.2845 98.8147C94.6286 99.2222 93.6278 99.7373 92.3217 100.207C89.7264 101.169 85.8363 101.713 81.6409 101.158C77.4455 100.603 73.8212 99.3128 71.2429 98.3619C69.9537 97.8751 68.919 97.4619 68.2066 97.1676C67.8786 97.0261 67.6072 96.9129 67.3867 96.8223C67.2001 96.7374 67.104 96.6921 67.1097 96.6808C67.1153 96.6695 67.2171 96.6978 67.4093 96.7657C67.6299 96.8449 67.9069 96.9412 68.2462 97.06C69.0095 97.3374 70.0498 97.7109 71.3107 98.1638C73.9004 99.0694 77.519 100.315 81.6749 100.864C85.8307 101.413 89.6642 100.909 92.2482 100.009C93.543 99.5731 94.5494 99.092 95.2223 98.7128C95.8951 98.3449 96.2514 98.1128 96.2683 98.1355Z" fill="#263238"/>
</g>
</g>
<g id="Group_146" opacity="0.2">
<g id="Group_147" opacity="0.2">
<path id="Vector_84" opacity="0.2" d="M95.946 86.3963C97.6535 84.6926 97.6592 81.6362 97.303 79.2476C96.9467 76.859 96.0421 74.578 95.7198 72.1894C95.4145 69.9197 95.635 67.6103 95.5332 65.318C95.4314 63.0256 94.9395 60.637 93.4525 58.8994C92.5704 68.1141 93.4242 77.4929 95.946 86.3963Z" fill="black"/>
</g>
</g>
<g id="Group_148" opacity="0.2">
<g id="Group_149" opacity="0.2">
<path id="Vector_85" opacity="0.2" d="M79.8882 61.5257C79.6281 63.037 79.8712 64.6105 79.7581 66.15C79.645 67.6896 79.5319 69.2518 79.7751 70.7744C80.0182 72.3026 80.6402 73.8139 81.7936 74.8497C82.9414 75.8798 84.6772 76.3326 86.0908 75.7213C87.5213 75.1044 88.3864 73.4629 88.262 71.9064C87.2442 72.3875 86.0964 72.6422 84.9769 72.529C83.8517 72.4158 82.7548 71.9234 81.9972 71.0857C80.8833 69.8574 80.4479 68.1537 80.3405 66.4953C80.2274 64.8482 80.0239 63.1558 79.8882 61.5257Z" fill="black"/>
</g>
</g>
<g id="Group_150">
<g id="Group_151">
<path id="Vector_86" d="M60.9975 57.2862C60.9975 57.3089 60.7827 57.3541 60.3869 57.4164C59.9911 57.4843 59.42 57.5636 58.7076 57.6485C57.2884 57.807 55.2868 57.9937 53.0986 57.6598C50.9105 57.3258 49.0559 56.3976 47.959 55.4467C47.4049 54.9769 47.0204 54.5297 46.7886 54.2015C46.5567 53.8732 46.4493 53.6751 46.4663 53.6637C46.5172 53.6241 46.9751 54.4052 48.0947 55.2825C49.1972 56.1655 51.0066 57.0372 53.1495 57.3655C55.2925 57.6938 57.2714 57.5409 58.6963 57.4391C59.3578 57.3824 59.9232 57.3372 60.3869 57.2975C60.7714 57.2692 60.9975 57.2636 60.9975 57.2862Z" fill="#FAFAFA"/>
</g>
</g>
<g id="Group_152">
<g id="Group_153">
<path id="Vector_87" d="M60.2003 61.6275C60.2059 61.6445 59.9911 61.7238 59.6009 61.8426C59.403 61.9049 59.1655 61.9728 58.8772 62.0294C58.5945 62.086 58.2722 62.1709 57.9047 62.2105C57.1809 62.3294 56.3045 62.3917 55.332 62.3803C54.3595 62.352 53.2965 62.2502 52.1939 62.0181C51.097 61.7747 50.0793 61.4294 49.1859 61.0559C48.2982 60.6653 47.5236 60.2465 46.9129 59.8389C46.5963 59.6522 46.3362 59.4427 46.1044 59.2729C45.8669 59.1031 45.6746 58.9446 45.522 58.8031C45.211 58.5315 45.0527 58.3786 45.064 58.3616C45.0979 58.3164 45.7821 58.9107 47.026 59.6635C47.6423 60.0427 48.4113 60.4333 49.2933 60.8068C50.181 61.1634 51.1818 61.4974 52.2561 61.7351C53.3361 61.9615 54.3821 62.0747 55.3377 62.1143C56.2932 62.137 57.1583 62.0973 57.8764 62.0068C59.3182 61.8313 60.1833 61.5709 60.2003 61.6275Z" fill="#FAFAFA"/>
</g>
</g>
<g id="Group_154">
<g id="Group_155">
<path id="Vector_88" d="M79.4132 60.92C79.4132 60.9993 75.3082 60.9597 70.2534 60.8295C65.1929 60.6993 61.0992 60.5295 61.0992 60.4446C61.0992 60.3654 65.2042 60.405 70.259 60.5352C75.3139 60.6653 79.4132 60.8351 79.4132 60.92Z" fill="#FAFAFA"/>
</g>
</g>
<g id="Group_156">
<g id="Group_157">
<path id="Vector_89" d="M80.0013 65.4878C80.0069 65.5048 79.7412 65.5897 79.2493 65.7255C78.763 65.8614 78.0449 66.0255 77.1572 66.201C75.3818 66.5519 72.8883 66.8745 70.1177 66.9085C67.3472 66.9368 64.848 66.6651 63.0613 66.3481C62.1679 66.1953 61.4499 66.0425 60.9579 65.918C60.466 65.7934 60.1946 65.7199 60.2003 65.6972C60.2059 65.6746 60.483 65.7142 60.9806 65.8048C61.4781 65.8953 62.1962 66.0142 63.0896 66.1444C64.8763 66.4047 67.3585 66.6425 70.1121 66.6142C72.86 66.5802 75.3422 66.2915 77.1176 65.9972C78.0053 65.85 78.7234 65.7142 79.221 65.6123C79.7185 65.5161 79.9956 65.4708 80.0013 65.4878Z" fill="#FAFAFA"/>
</g>
</g>
<g id="Group_158">
<g id="Group_159">
<path id="Vector_90" d="M90.6198 64.6501C90.6368 64.6557 90.5802 64.8142 90.4332 65.0689C90.2862 65.3293 90.0148 65.6689 89.602 66.0085C88.7878 66.6934 87.3064 67.2537 85.678 67.0839C84.0496 66.9085 82.7209 66.2236 81.8219 65.7085C80.9172 65.1821 80.397 64.7916 80.4197 64.7633C80.4423 64.7237 81.002 65.0519 81.9237 65.5274C82.8396 65.9915 84.1571 66.6255 85.712 66.7953C87.2669 66.9537 88.6748 66.4557 89.4833 65.85C90.3032 65.2387 90.5633 64.6161 90.6198 64.6501Z" fill="#FAFAFA"/>
</g>
</g>
<g id="Group_160">
<g id="Group_161">
<path id="Vector_91" d="M93.1698 61.1747C93.1868 61.254 92.5365 61.4577 91.7167 61.6332C90.8968 61.8087 90.2183 61.8823 90.2014 61.803C90.1844 61.7238 90.8346 61.52 91.6545 61.3445C92.4744 61.1691 93.1528 61.0955 93.1698 61.1747Z" fill="#FAFAFA"/>
</g>
</g>
<g id="Group_162">
<g id="Group_163">
<path id="Vector_92" d="M98.6375 61.3615C98.6714 61.4295 97.5349 62.103 96.0083 62.6634C94.4816 63.2237 93.1755 63.4388 93.1586 63.3596C93.1359 63.2747 94.4025 62.9351 95.9065 62.386C97.4105 61.8313 98.5979 61.2823 98.6375 61.3615Z" fill="#FAFAFA"/>
</g>
</g>
<g id="Group_164">
<g id="Group_165">
<path id="Vector_93" d="M96.8281 55.9335C96.8395 56.0184 96.0422 56.1769 95.0923 56.4429C94.1424 56.7146 93.3791 56.9919 93.3452 56.9127C93.3169 56.8448 94.035 56.4372 95.0131 56.1599C95.9913 55.8882 96.8168 55.8599 96.8281 55.9335Z" fill="#FAFAFA"/>
</g>
</g>
<g id="Group_166">
<g id="Group_167">
<path id="Vector_94" d="M93.7522 53.8618C93.7635 53.8618 93.7579 53.9807 93.7409 54.1958C93.7183 54.4448 93.69 54.7618 93.6618 55.1467C93.6165 55.5599 93.577 56.0636 93.5374 56.6523C93.4921 57.2409 93.4356 57.9088 93.4017 58.6447C93.3056 60.122 93.266 61.8879 93.249 63.8463C93.2547 65.8047 93.3112 67.9556 93.4526 70.214C93.6052 72.4724 93.8257 74.6119 94.0689 76.5533C94.3346 78.4948 94.6004 80.2381 94.8887 81.6928C95.0188 82.4229 95.1601 83.0795 95.2789 83.6568C95.392 84.2342 95.4994 84.7323 95.5955 85.1341C95.6803 85.5133 95.7425 85.8247 95.7991 86.068C95.8443 86.2831 95.8613 86.3963 95.8499 86.3963C95.8386 86.3963 95.8047 86.2888 95.7425 86.0794C95.6747 85.836 95.5899 85.5303 95.4881 85.1568C95.375 84.7549 95.2506 84.2625 95.1206 83.6908C94.9849 83.1191 94.8322 82.4625 94.6908 81.7324C94.3799 80.2777 94.0915 78.5344 93.8088 76.5873C93.5487 74.6402 93.3169 72.4894 93.1699 70.231C93.0285 67.9669 92.9833 65.8104 92.9889 63.8463C93.0172 61.8823 93.0794 60.1163 93.2038 58.6333C93.249 57.8919 93.3225 57.224 93.3791 56.6353C93.4356 56.0467 93.4922 55.5429 93.5543 55.1297C93.6109 54.7448 93.6561 54.4335 93.69 54.1845C93.7183 53.975 93.7409 53.8618 93.7522 53.8618Z" fill="#263238"/>
</g>
</g>
<g id="Group_168" opacity="0.2">
<g id="Group_169" opacity="0.2">
<path id="Vector_95" opacity="0.2" d="M81.4148 60.5125C83.1054 61.6106 85.3614 61.7804 87.1934 60.937C87.4139 60.8351 87.6288 60.7219 87.8719 60.688C88.1094 60.654 88.3808 60.7276 88.5108 60.9314C88.6917 61.2087 88.5334 61.5823 88.3299 61.8426C87.4987 62.9181 85.9664 63.2973 84.649 62.9577C83.3372 62.6181 82.246 61.6559 81.5109 60.5125" fill="black"/>
</g>
</g>
</g>
<g id="Group_170">
<g id="Group_171">
<path id="Vector_96" d="M70.7962 12.1637C70.4965 10.8675 70.1912 9.55999 70.1516 8.22986C70.1121 6.89973 70.3495 5.52431 71.0563 4.39795C71.7631 3.27158 72.9957 2.42822 74.3244 2.39992C75.1443 2.38294 75.9698 2.66594 76.7783 2.51878C77.7113 2.34898 78.4407 1.64146 79.2379 1.12639C80.4818 0.311327 81.9915 -0.0792222 83.4729 0.0226603C84.2475 0.0792616 85.0391 0.277366 85.6667 0.741498C86.2887 1.20563 86.7241 1.97541 86.6449 2.75085C87.5948 2.60934 88.556 2.46218 89.5059 2.56972C90.4615 2.67726 91.417 3.06781 92.0164 3.82061C92.6157 4.57341 92.7514 5.72242 92.1803 6.4922C93.0285 6.18089 94.0519 6.7186 94.3911 7.5563C94.7304 8.394 94.442 9.41283 93.8031 10.0524C93.1585 10.692 91.8468 11.1279 90.9421 11.0939C90.0374 11.0599 88.997 10.9637 88.1998 10.5335" fill="#263238"/>
</g>
<g id="Group_172">
<g id="Group_173">
<g id="Group_174">
<g id="Group_175">
<g id="Group_176">
<g id="Group_177">
<g id="Group_178">
<g id="Group_179">
<g id="Group_180">
<g id="Group_181">
<path id="Vector_97" d="M73.9626 42.1511C77.8923 43.0567 81.7202 40.3002 82.116 36.2872C82.3308 34.1363 82.5174 32.2968 82.557 32.0364C82.557 32.0364 87.9681 32.1383 88.9519 26.88C89.9414 21.6217 91.1457 9.35622 91.1457 9.35622C85.5085 5.66581 78.3163 5.31488 72.3512 8.44493L71.4635 8.90906L68.8003 34.9457C68.4611 38.3022 70.6719 41.3926 73.9626 42.1511Z" fill="#FFBE9D"/>
</g>
</g>
</g>
</g>
</g>
<g id="Group_182">
<g id="Group_183">
<g id="Group_184">
<g id="Group_185">
<g id="Group_186">
<path id="Vector_98" d="M82.5796 31.9628C82.5796 31.9628 79.204 31.6515 76.0546 28.8044C76.0546 28.8044 77.0158 32.8854 82.3534 33.3269L82.5796 31.9628Z" fill="#AA6550"/>
</g>
</g>
</g>
</g>
</g>
</g>
</g>
</g>
<g id="Group_187">
<g id="Group_188">
<g id="Group_189">
<g id="Group_190">
<g id="Group_191">
<g id="Group_192">
<path id="Vector_99" d="M71.1637 14.4843C71.0789 14.4277 67.7316 12.7806 67.2171 16.4031C66.7026 20.0256 70.44 19.7992 70.4626 19.6973C70.4852 19.5897 71.1637 14.4843 71.1637 14.4843Z" fill="#FFBE9D"/>
</g>
</g>
</g>
</g>
</g>
<g id="Group_193">
<g id="Group_194">
<g id="Group_195">
<g id="Group_196">
<g id="Group_197">
<g id="Group_198">
<path id="Vector_100" d="M69.5524 18.1634C69.5354 18.1521 69.4845 18.1973 69.3714 18.2313C69.2583 18.2653 69.0774 18.2709 68.8965 18.1747C68.5346 17.9823 68.2971 17.3257 68.3763 16.6691C68.4159 16.3408 68.5289 16.0352 68.6816 15.7918C68.8286 15.5427 69.0265 15.3843 69.2244 15.3729C69.4223 15.356 69.5411 15.4918 69.5693 15.5993C69.6033 15.7069 69.5693 15.7748 69.5863 15.7861C69.5976 15.7974 69.6711 15.7352 69.6654 15.5824C69.6598 15.5088 69.6315 15.4182 69.558 15.3333C69.4789 15.2484 69.3601 15.1975 69.2244 15.1918C68.9417 15.1692 68.6533 15.3899 68.4837 15.6616C68.2971 15.9276 68.1614 16.2672 68.1218 16.6408C68.0427 17.3766 68.3197 18.1124 68.8173 18.3389C69.0604 18.4407 69.2866 18.3955 69.4054 18.3275C69.5354 18.2483 69.5637 18.1747 69.5524 18.1634Z" fill="#AA6550"/>
</g>
</g>
</g>
</g>
</g>
</g>
</g>
<g id="Group_199">
<g id="Group_200">
<g id="Group_201">
<g id="Group_202">
<g id="Group_203">
<g id="Group_204">
<g id="Group_205">
<g id="Group_206">
<g id="Group_207">
<g id="Group_208">
<g id="Group_209">
<path id="Vector_101" d="M88.505 17.4332C88.4485 17.8351 88.064 18.1181 87.6456 18.0671C87.2272 18.0162 86.9331 17.6539 86.9897 17.2521C87.0462 16.8502 87.4307 16.5672 87.8491 16.6181C88.2619 16.6691 88.5559 17.0313 88.505 17.4332Z" fill="#263238"/>
</g>
</g>
</g>
</g>
</g>
<g id="Group_210">
<g id="Group_211">
<g id="Group_212">
<g id="Group_213">
<g id="Group_214">
<g id="Group_215">
<path id="Vector_102" d="M88.8556 16.5955C88.7425 16.6747 88.2506 16.154 87.442 16.0182C86.6335 15.8653 85.9663 16.1823 85.8984 16.0634C85.8645 16.0125 85.9889 15.854 86.2829 15.7069C86.5713 15.5654 87.0349 15.4578 87.5382 15.5484C88.0414 15.6389 88.4315 15.8993 88.6464 16.1314C88.8556 16.3691 88.9065 16.5615 88.8556 16.5955Z" fill="#263238"/>
</g>
</g>
</g>
</g>
</g>
</g>
</g>
<g id="Group_216">
<g id="Group_217">
<g id="Group_218">
<g id="Group_219">
<g id="Group_220">
<g id="Group_221">
<path id="Vector_103" d="M80.657 16.0352C80.6005 16.437 80.216 16.72 79.7976 16.6691C79.3792 16.6182 79.0852 16.2559 79.1417 15.854C79.1983 15.4522 79.5828 15.1692 80.0012 15.2201C80.4139 15.271 80.7079 15.6333 80.657 16.0352Z" fill="#263238"/>
</g>
</g>
</g>
</g>
</g>
<g id="Group_222">
<g id="Group_223">
<g id="Group_224">
<g id="Group_225">
<g id="Group_226">
<g id="Group_227">
<path id="Vector_104" d="M80.8719 15.3559C80.7588 15.4352 80.2669 14.9144 79.4584 14.7786C78.6498 14.6258 77.9827 14.9427 77.9148 14.8239C77.8809 14.7729 78.0053 14.6145 78.2993 14.4673C78.5876 14.3258 79.0513 14.2182 79.5545 14.3088C80.0577 14.3994 80.4479 14.6597 80.6627 14.8918C80.8719 15.1239 80.9285 15.3163 80.8719 15.3559Z" fill="#263238"/>
</g>
</g>
</g>
</g>
</g>
</g>
</g>
<g id="Group_228">
<g id="Group_229">
<g id="Group_230">
<g id="Group_231">
<g id="Group_232">
<g id="Group_233">
<path id="Vector_105" d="M82.7604 21.8764C82.7661 21.8311 83.2806 21.8311 84.1174 21.8707C84.3266 21.8877 84.5302 21.8764 84.5924 21.7462C84.6659 21.6047 84.6207 21.367 84.5641 21.1066C84.4567 20.5746 84.3436 20.0142 84.2305 19.4256C83.7725 17.037 83.4842 15.0842 83.5803 15.0673C83.6764 15.0503 84.1231 16.9747 84.5811 19.3633C84.6885 19.9519 84.7903 20.5123 84.8921 21.05C84.9316 21.2991 85.0164 21.5877 84.8581 21.8821C84.7733 22.0292 84.6037 22.1141 84.468 22.1254C84.3266 22.1424 84.2136 22.1254 84.1061 22.1141C83.2636 22.0066 82.7548 21.9217 82.7604 21.8764Z" fill="#263238"/>
</g>
</g>
</g>
</g>
</g>
</g>
<g id="Group_234">
<g id="Group_235">
<g id="Group_236">
<g id="Group_237">
<g id="Group_238">
<g id="Group_239">
<path id="Vector_106" d="M80.2783 22.0179C80.414 22.0349 80.2613 22.9122 80.9002 23.6707C81.5391 24.4291 82.4947 24.4914 82.4777 24.6159C82.4777 24.6725 82.2403 24.7518 81.8445 24.6895C81.4543 24.6329 80.9115 24.4122 80.5157 23.948C80.1256 23.4839 80.0182 22.9405 80.0521 22.5726C80.086 22.2047 80.2217 22.0009 80.2783 22.0179Z" fill="#263238"/>
</g>
</g>
</g>
</g>
</g>
</g>
</g>
</g>
</g>
<g id="Group_240">
<g id="Group_241">
<g id="Group_242">
<g id="Group_243">
<g id="Group_244">
<path id="Vector_107" d="M88.8048 15.1182C88.6295 15.2767 88.1037 14.988 87.4365 14.8635C86.775 14.7163 86.1756 14.7673 86.0795 14.5522C86.0399 14.4503 86.1587 14.2805 86.4414 14.1503C86.7184 14.0201 87.1481 13.9522 87.6061 14.0428C88.0641 14.139 88.4316 14.3767 88.6352 14.6031C88.8387 14.8352 88.884 15.039 88.8048 15.1182Z" fill="#263238"/>
</g>
</g>
</g>
</g>
</g>
</g>
</g>
</g>
</g>
<g id="Group_245">
<g id="Group_246">
<path id="Vector_108" d="M80.3348 12.2429C80.2274 12.3278 80.0239 12.2485 79.7638 12.1466C79.5037 12.0448 79.1701 11.9202 78.7856 11.8353C78.4011 11.7561 78.0505 11.7391 77.7678 11.7278C77.4908 11.7165 77.2759 11.7052 77.2081 11.5863C77.1459 11.4788 77.2646 11.258 77.5869 11.0769C77.9035 10.8958 78.4294 10.7882 78.9778 10.9014C79.5319 11.0146 79.9673 11.3259 80.1822 11.6203C80.414 11.9202 80.4366 12.1636 80.3348 12.2429Z" fill="#263238"/>
</g>
</g>
<g id="Group_247">
<path id="Vector_109" d="M91.1287 11.0203C91.1287 11.0203 87.397 11.5863 83.5182 9.28261C80.9738 7.77135 77.9375 6.89969 77.2194 7.3808C76.5013 7.86191 76.1621 10.5788 73.482 11.1844C73.482 11.1844 73.2841 16.3974 71.226 16.0635C69.1678 15.7295 71.0507 7.76569 71.0507 7.76569L76.2978 5.66012L81.9067 5.01486L87.086 5.39409L91.7959 7.22798L91.1287 11.0203Z" fill="#263238"/>
</g>
</g>
</g>
</g>
<defs>
<clipPath id="clip0_1_666">
<rect width="150" height="224" fill="white"/>
</clipPath>
</defs>
</svg>
