<svg width="24" height="24" viewBox="0 0 24 24" fill="none" xmlns="http://www.w3.org/2000/svg">
<g id="Iconly/Bold/Heart">
<g id="Heart">
<path id="Heart_2" d="M17.7098 2.7907C17.1108 2.5897 16.4808 2.5007 15.8498 2.5007C14.4598 2.4907 13.1108 2.9507 11.9998 3.7997C11.9098 3.7307 11.7998 3.6697 11.6998 3.6107C11.5998 3.5497 11.4198 3.4007 11.2698 3.3207L10.8898 3.1507C10.6898 3.0407 10.4808 2.9607 10.2598 2.8897C10.2398 2.8707 10.2098 2.8497 10.1698 2.8307H10.1108C9.51977 2.6297 8.90977 2.5197 8.27977 2.5007H8.16977C7.88977 2.5007 7.61077 2.5197 7.32977 2.5607H7.20977C6.90977 2.5997 6.61077 2.6697 6.32077 2.7697C2.58977 3.9907 1.25977 8.0407 2.38977 11.5807C3.02977 13.3897 4.06077 15.0307 5.40077 16.3797C7.34977 18.2597 9.48077 19.9197 11.7698 21.3397L12.0298 21.5007L12.2798 21.3497C14.5608 19.9197 16.6798 18.2597 18.6108 16.3897C19.9598 15.0407 20.9898 13.3897 21.6198 11.5807C22.7308 8.0407 21.4008 3.9907 17.7098 2.7907Z" fill="#ABB5BA"/>
</g>
</g>
</svg>
