<svg width="36" height="36" viewBox="0 0 36 36" fill="none" xmlns="http://www.w3.org/2000/svg">
<g id="united-kingdom 1" clip-path="url(#clip0_1_644)">
<path id="Vector" d="M18 36C27.9411 36 36 27.9411 36 18C36 8.05887 27.9411 0 18 0C8.05887 0 0 8.05887 0 18C0 27.9411 8.05887 36 18 36Z" fill="#F0F0F0"/>
<g id="Group">
<path id="Vector_2" d="M3.72121 7.04123C2.3073 8.88082 1.24115 11.0011 0.620361 13.3045H9.98444L3.72121 7.04123Z" fill="#0052B4"/>
<path id="Vector_3" d="M35.3802 13.3045C34.7594 11.0012 33.6932 8.88088 32.2793 7.04129L26.0162 13.3045H35.3802Z" fill="#0052B4"/>
<path id="Vector_4" d="M0.620361 22.6958C1.24122 24.9991 2.30737 27.1193 3.72121 28.9589L9.98423 22.6958H0.620361Z" fill="#0052B4"/>
<path id="Vector_5" d="M28.959 3.72101C27.1194 2.30709 24.9992 1.24095 22.6958 0.620087V9.9841L28.959 3.72101Z" fill="#0052B4"/>
<path id="Vector_6" d="M7.04153 32.279C8.88112 33.6929 11.0014 34.759 13.3047 35.3799V26.016L7.04153 32.279Z" fill="#0052B4"/>
<path id="Vector_7" d="M13.3046 0.620087C11.0013 1.24095 8.88105 2.30709 7.04153 3.72094L13.3046 9.98402V0.620087Z" fill="#0052B4"/>
<path id="Vector_8" d="M22.6959 35.3799C24.9992 34.759 27.1195 33.6929 28.959 32.279L22.6959 26.016V35.3799Z" fill="#0052B4"/>
<path id="Vector_9" d="M26.0162 22.6958L32.2793 28.9589C33.6932 27.1194 34.7594 24.9991 35.3802 22.6958H26.0162Z" fill="#0052B4"/>
</g>
<g id="Group_2">
<path id="Vector_10" d="M35.8476 15.6522H20.3479H20.3479V0.152367C19.5793 0.0523125 18.7957 0 18 0C17.2041 0 16.4207 0.0523125 15.6522 0.152367V15.6521V15.6521H0.152367C0.0523125 16.4207 0 17.2043 0 18C0 18.7959 0.0523125 19.5793 0.152367 20.3478H15.6521H15.6521V35.8476C16.4207 35.9477 17.2041 36 18 36C18.7957 36 19.5793 35.9478 20.3478 35.8476V20.3479V20.3479H35.8476C35.9477 19.5793 36 18.7959 36 18C36 17.2043 35.9477 16.4207 35.8476 15.6522Z" fill="#D80027"/>
<path id="Vector_11" d="M22.6958 22.6957L30.728 30.728C31.0974 30.3587 31.4498 29.9726 31.7861 29.5724L24.9094 22.6957H22.6958V22.6957Z" fill="#D80027"/>
<path id="Vector_12" d="M13.3042 22.6957H13.3041L5.27191 30.7279C5.64119 31.0973 6.02728 31.4497 6.4275 31.7859L13.3042 24.9091V22.6957Z" fill="#D80027"/>
<path id="Vector_13" d="M13.3044 13.3045V13.3043L5.2722 5.27203C4.90278 5.64132 4.55038 6.0274 4.21414 6.42762L11.0909 13.3044H13.3044V13.3045Z" fill="#D80027"/>
<path id="Vector_14" d="M22.6958 13.3045L30.7281 5.2721C30.3588 4.90268 29.9727 4.55028 29.5725 4.21411L22.6958 11.0909V13.3045Z" fill="#D80027"/>
</g>
</g>
<defs>
<clipPath id="clip0_1_644">
<rect width="36" height="36" fill="white"/>
</clipPath>
</defs>
</svg>
